<svg xmlns="http://www.w3.org/2000/svg" width="45" height="45" viewBox="0 0 45 45"><defs><style>.a{opacity:0.8;}.b{fill:#040f16;}</style></defs><g class="a"><path class="b" d="M151.781,144H133.625l9.078,7.781Zm0,0" transform="translate(-120.203 -129.536)"/><path class="b" d="M130.446,162.09a.8.8,0,0,1-.523-.194L120,153.391v15.128h20.893V153.391l-9.923,8.506a.8.8,0,0,1-.523.194Zm0,0" transform="translate(-107.946 -137.983)"/><path class="b" d="M22.5,0A22.5,22.5,0,1,0,45,22.5,22.5,22.5,0,0,0,22.5,0ZM34.554,31.339a.8.8,0,0,1-.8.8H11.25a.8.8,0,0,1-.8-.8V13.661a.8.8,0,0,1,.8-.8h22.5a.8.8,0,0,1,.8.8Zm0,0"/></g></svg>